<?xml version="1.0" encoding="utf-8"?>
<!-- Generator: Adobe Illustrator 16.0.0, SVG Export Plug-In . SVG Version: 6.00 Build 0)  -->
<!DOCTYPE svg PUBLIC "-//W3C//DTD SVG 1.1//EN" "http://www.w3.org/Graphics/SVG/1.1/DTD/svg11.dtd">
<svg version="1.1" id="Layer_1" xmlns="http://www.w3.org/2000/svg" xmlns:xlink="http://www.w3.org/1999/xlink" x="0px" y="0px"
	 width="49.32px" height="49.32px" viewBox="0 0 49.32 49.32" enable-background="new 0 0 49.32 49.32" xml:space="preserve">
<g>
	<path fill="#7484BF" d="M4.797,22.318l-1.59-0.184C4.359,12.123,12.156,4.326,22.168,3.174l0.184,1.59
		C13.082,5.83,5.863,13.049,4.797,22.318L4.797,22.318z M4.797,22.318"/>
	<path fill="#7484BF" d="M44.523,22.318c-1.066-9.27-8.285-16.488-17.555-17.555l0.184-1.59
		c10.012,1.152,17.809,8.949,18.961,18.961L44.523,22.318z M44.523,22.318"/>
	<path fill="#7484BF" d="M27.152,46.08l-0.184-1.59c9.27-1.066,16.488-8.285,17.555-17.555l1.59,0.184
		C44.961,37.131,37.164,44.928,27.152,46.08L27.152,46.08z M27.152,46.08"/>
	<path fill="#7484BF" d="M22.168,46.08C12.156,44.928,4.359,37.131,3.207,27.119l1.59-0.184c1.066,9.27,8.285,16.488,17.555,17.555
		L22.168,46.08z M22.168,46.08"/>
	<path fill="#29B99A" d="M24.494,41.285c-2.207,0-4,1.797-4,4c0,2.207,1.793,4,4,4c2.203,0,4-1.793,4-4
		C28.494,43.082,26.697,41.285,24.494,41.285z"/>
	<path fill="#444D6E" d="M45.318,20.627c-2.207,0-4,1.797-4,4c0,2.207,1.793,4,4,4c2.203,0,4-1.793,4-4
		C49.318,22.424,47.521,20.627,45.318,20.627z"/>
	<path fill="#444D6E" d="M24.727,0.035c-2.207,0-4,1.797-4,4c0,2.207,1.793,4,4,4c2.203,0,4-1.793,4-4
		C28.727,1.832,26.93,0.035,24.727,0.035z"/>
	<path fill="#444D6E" d="M4.002,20.627c-2.207,0-4,1.797-4,4c0,2.207,1.793,4,4,4c2.203,0,4-1.793,4-4
		C8.002,22.424,6.205,20.627,4.002,20.627z"/>
</g>
</svg>
