<?xml version="1.0" encoding="iso-8859-1"?>
<!-- Generator: Adobe Illustrator 18.0.0, SVG Export Plug-In . SVG Version: 6.00 Build 0)  -->
<!DOCTYPE svg PUBLIC "-//W3C//DTD SVG 1.1//EN" "http://www.w3.org/Graphics/SVG/1.1/DTD/svg11.dtd">
<svg version="1.1" id="Capa_1" xmlns="http://www.w3.org/2000/svg" xmlns:xlink="http://www.w3.org/1999/xlink" x="0px" y="0px"
	 viewBox="0 0 60 60" style="enable-background:new 0 0 60 60;" xml:space="preserve">
<g>
	<path style="fill:#7383BF;" d="M5.171,27.114l-1.986-0.229C4.623,14.37,14.369,4.623,26.886,3.184l0.229,1.987
		C15.526,6.503,6.503,15.526,5.171,27.114z"/>
	<path style="fill:#7383BF;" d="M54.829,27.114C53.497,15.526,44.474,6.503,32.886,5.171l0.229-1.987
		C45.631,4.623,55.377,14.37,56.815,26.886L54.829,27.114z"/>
	<path style="fill:#7383BF;" d="M33.114,56.816l-0.229-1.987c11.588-1.332,20.611-10.355,21.943-21.943l1.986,0.229
		C55.377,45.63,45.631,55.377,33.114,56.816z"/>
	<path style="fill:#7383BF;" d="M26.886,56.816C14.369,55.377,4.623,45.63,3.185,33.114l1.986-0.229
		c1.332,11.588,10.355,20.611,21.943,21.943L26.886,56.816z"/>
	<g>
		<rect x="1" y="27" style="fill:#434C6D;" width="6" height="6"/>
		<path style="fill:#434C6D;" d="M8,34H0v-8h8V34z M2,32h4v-4H2V32z"/>
	</g>
	<g>
		<rect x="53" y="27" style="fill:#434C6D;" width="6" height="6"/>
		<path style="fill:#434C6D;" d="M60,34h-8v-8h8V34z M54,32h4v-4h-4V32z"/>
	</g>
	<g>
		<rect x="27" y="53" style="fill:#434C6D;" width="6" height="6"/>
		<path style="fill:#434C6D;" d="M34,60h-8v-8h8V60z M28,58h4v-4h-4V58z"/>
	</g>
	<g>
		<rect x="27" y="1" style="fill:#434C6D;" width="6" height="6"/>
		<path style="fill:#434C6D;" d="M34,8h-8V0h8V8z M28,6h4V2h-4V6z"/>
	</g>
</g>
<g>
</g>
<g>
</g>
<g>
</g>
<g>
</g>
<g>
</g>
<g>
</g>
<g>
</g>
<g>
</g>
<g>
</g>
<g>
</g>
<g>
</g>
<g>
</g>
<g>
</g>
<g>
</g>
<g>
</g>
</svg>
