<?xml version="1.0" encoding="utf-8"?>
<!-- Generator: Adobe Illustrator 16.0.0, SVG Export Plug-In . SVG Version: 6.00 Build 0)  -->
<!DOCTYPE svg PUBLIC "-//W3C//DTD SVG 1.1//EN" "http://www.w3.org/Graphics/SVG/1.1/DTD/svg11.dtd">
<svg version="1.1" id="Layer_1" xmlns="http://www.w3.org/2000/svg" xmlns:xlink="http://www.w3.org/1999/xlink" x="0px" y="0px"
	 width="50.21px" height="50.2px" viewBox="0 0 50.21 50.2" enable-background="new 0 0 50.21 50.2" xml:space="preserve">
<g>
	<path fill="#7484BF" d="M46.048,14.752L4.822,4.85c-0.445,0-0.801-0.358-0.801-0.801c0-0.441,0.355-0.801,0.801-0.801l41.226,9.902
		c0.441,0,0.801,0.359,0.801,0.801C46.849,14.394,46.489,14.752,46.048,14.752L46.048,14.752z M46.048,14.752"/>
	<path fill="#7484BF" d="M3.222,45.248V4.85c0-0.445,0.359-0.801,0.801-0.801S4.823,4.405,4.823,4.85v40.398
		c0,0.441-0.359,0.801-0.801,0.801S3.222,45.689,3.222,45.248L3.222,45.248z M3.222,45.248"/>
	<path fill="#444D6E" d="M46.212,9.952c-2.207,0-4,1.797-4,4c0,2.207,1.793,4,4,4c2.203,0,4-1.793,4-4
		C50.212,11.749,48.415,9.952,46.212,9.952z"/>
	<path fill="#444D6E" d="M3.998,0.151c-2.207,0-4,1.797-4,4c0,2.207,1.793,4,4,4c2.203,0,4-1.793,4-4
		C7.998,1.948,6.201,0.151,3.998,0.151z"/>
	<path fill="#29B99A" d="M4.021,42.049c-2.207,0-4,1.797-4,4c0,2.207,1.793,4,4,4c2.203,0,4-1.793,4-4
		C8.021,43.846,6.225,42.049,4.021,42.049z"/>
</g>
</svg>
