<?xml version="1.0" encoding="utf-8"?>
<!-- Generator: Adobe Illustrator 16.0.0, SVG Export Plug-In . SVG Version: 6.00 Build 0)  -->
<!DOCTYPE svg PUBLIC "-//W3C//DTD SVG 1.1//EN" "http://www.w3.org/Graphics/SVG/1.1/DTD/svg11.dtd">
<svg version="1.1" id="Layer_1" xmlns="http://www.w3.org/2000/svg" xmlns:xlink="http://www.w3.org/1999/xlink" x="0px" y="0px"
	 width="50.21px" height="50.21px" viewBox="0 0 50.21 50.21" enable-background="new 0 0 50.21 50.21" xml:space="preserve">
<g>
	<path fill="#7484BF" d="M46.048,14.757L4.822,4.855c-0.445,0-0.801-0.358-0.801-0.801c0-0.441,0.355-0.801,0.801-0.801
		l41.226,9.902c0.441,0,0.801,0.359,0.801,0.801C46.849,14.399,46.489,14.757,46.048,14.757L46.048,14.757z M46.048,14.757"/>
	<path fill="#7484BF" d="M19.904,19.149l25.311-5.957c0.433-0.108,0.865,0.153,0.973,0.582c0.106,0.428-0.15,0.863-0.582,0.972
		l-25.313,5.956c-0.429,0.108-0.864-0.153-0.971-0.582C19.215,19.691,19.476,19.255,19.904,19.149L19.904,19.149z M19.904,19.149"/>
	<path fill="#7484BF" d="M19.438,21.323L4.589,45.818c-0.314,0.314-0.819,0.314-1.133,0c-0.312-0.313-0.314-0.818,0-1.133
		l14.85-24.496c0.312-0.312,0.82-0.312,1.133,0C19.752,20.503,19.75,21.01,19.438,21.323L19.438,21.323z M19.438,21.322"/>
	<path fill="#7484BF" d="M3.222,45.254V4.855c0-0.445,0.359-0.801,0.801-0.801S4.823,4.41,4.823,4.855v40.399
		c0,0.441-0.359,0.801-0.801,0.801S3.222,45.695,3.222,45.254L3.222,45.254z M3.222,45.254"/>
	<path fill="#444D6E" d="M46.212,9.957c-2.207,0-4,1.797-4,4c0,2.207,1.793,4,4,4c2.203,0,4-1.793,4-4
		C50.212,11.753,48.415,9.957,46.212,9.957z"/>
	<path fill="#444D6E" d="M19.431,16.05c-2.207,0-4,1.797-4,4c0,2.207,1.793,4,4,4c2.203,0,4-1.793,4-4
		C23.431,17.847,21.634,16.05,19.431,16.05z"/>
	<path fill="#444D6E" d="M3.998,0.156c-2.207,0-4,1.797-4,4c0,2.207,1.793,4,4,4c2.203,0,4-1.793,4-4
		C7.998,1.953,6.201,0.156,3.998,0.156z"/>
	<path fill="#29B99A" d="M4.021,42.055c-2.207,0-4,1.797-4,4c0,2.207,1.793,4,4,4c2.203,0,4-1.793,4-4
		C8.021,43.852,6.225,42.055,4.021,42.055z"/>
</g>
</svg>
