<?xml version="1.0" encoding="utf-8"?>
<!-- Generator: Adobe Illustrator 16.0.0, SVG Export Plug-In . SVG Version: 6.00 Build 0)  -->
<!DOCTYPE svg PUBLIC "-//W3C//DTD SVG 1.1//EN" "http://www.w3.org/Graphics/SVG/1.1/DTD/svg11.dtd">
<svg version="1.1" id="Layer_1" xmlns="http://www.w3.org/2000/svg" xmlns:xlink="http://www.w3.org/1999/xlink" x="0px" y="0px"
	 width="50.22px" height="50.22px" viewBox="0 0 50.22 50.22" enable-background="new 0 0 50.22 50.22" xml:space="preserve">
<g>
	<path fill="#7484BF" d="M45.226,4.959H4.826c-0.445,0-0.801-0.358-0.801-0.801c0-0.441,0.355-0.801,0.801-0.801h40.399
		c0.441,0,0.801,0.359,0.801,0.801C46.026,4.601,45.667,4.959,45.226,4.959L45.226,4.959z M45.226,4.959"/>
	<path fill="#7484BF" d="M46.827,4.96v40.397c0,0.445-0.359,0.801-0.801,0.801s-0.801-0.355-0.801-0.801V4.96
		c0-0.441,0.359-0.801,0.801-0.801S46.827,4.519,46.827,4.96L46.827,4.96z M46.827,4.96"/>
	<path fill="#7484BF" d="M45.228,46.959h-40.4c-0.445,0-0.801-0.357-0.801-0.801c0-0.441,0.355-0.801,0.801-0.801h40.4
		c0.441,0,0.801,0.359,0.801,0.801C46.028,46.602,45.669,46.959,45.228,46.959L45.228,46.959z M45.228,46.959"/>
	<path fill="#7484BF" d="M3.226,45.357V4.959c0-0.445,0.359-0.801,0.801-0.801s0.801,0.355,0.801,0.801v40.398
		c0,0.441-0.359,0.801-0.801,0.801S3.226,45.799,3.226,45.357L3.226,45.357z M3.226,45.357"/>
	<path fill="#444D6E" d="M46.218,0.061c-2.207,0-4.001,1.797-4.001,4c0,2.207,1.794,4,4.001,4c2.203,0,4-1.793,4-4
		C50.218,1.858,48.421,0.061,46.218,0.061z"/>
	<path fill="#444D6E" d="M46.003,42.158c-2.207,0-4.001,1.797-4.001,4c0,2.207,1.794,4,4.001,4c2.203,0,4-1.793,4-4
		C50.003,43.955,48.206,42.158,46.003,42.158z"/>
	<path fill="#444D6E" d="M4.002,0.26c-2.207,0-4,1.797-4,4c0,2.207,1.793,4,4,4c2.203,0,4-1.793,4-4
		C8.002,2.057,6.205,0.26,4.002,0.26z"/>
	<path fill="#29B99A" d="M4.026,42.158c-2.207,0-4,1.797-4,4c0,2.207,1.793,4,4,4c2.203,0,4-1.793,4-4
		C8.026,43.955,6.229,42.158,4.026,42.158z"/>
</g>
</svg>
